<mxfile host="app.diagrams.net" modified="2021-03-14T19:43:17.181Z" agent="5.0 (Macintosh; Intel Mac OS X 10_15_6) AppleWebKit/605.1.15 (KHTML, like Gecko) Version/14.0.1 Safari/605.1.15" etag="ReHjVV5tE5dlhgFapuWm" version="14.4.8" type="github">
  <diagram id="MuHebg66ojw3VpO3B60-" name="Page-1">
    <mxGraphModel dx="1420" dy="1317" grid="1" gridSize="10" guides="1" tooltips="1" connect="1" arrows="1" fold="1" page="1" pageScale="1" pageWidth="850" pageHeight="1100" math="0" shadow="0">
      <root>
        <mxCell id="0" />
        <mxCell id="1" parent="0" />
      </root>
    </mxGraphModel>
  </diagram>
</mxfile>
